<svg width="20" height="41" viewBox="0 0 20 41" fill="none" xmlns="http://www.w3.org/2000/svg">
<path d="M4.78995 1C4.96688 2.79744 5.93918 4.67871 6.30593 6.47594C6.9172 9.47131 7.04796 12.602 7.52714 15.631C7.60472 16.1214 7.65839 16.6196 7.67712 17.1111M7.67712 17.1111C7.76993 19.5477 7.00382 21.8196 4.03196 22.1551C1.56973 22.433 1 20.4411 1 18.1337C1 15.8606 4.04007 16.7861 5.84272 16.7861C6.51416 16.7861 7.12373 16.9003 7.67712 17.1111ZM7.67712 17.1111C13.0771 19.1685 13.1279 30.432 13.1279 34.6685V39.3102C13.1279 39.678 13.0764 39.8732 12.9829 39.9541M6.68493 36.0375C8.15521 37.5311 9.76198 38.3705 11.6119 39.3102C12.2376 39.628 12.7457 40.1594 12.9829 39.9541M12.9829 39.9541C13.1775 39.6642 13.7078 39.3341 13.9397 39.0723C14.2441 38.7284 14.5666 38.4111 14.8998 38.0968C15.661 37.3788 16.4637 36.6842 17.2674 36.015C17.5213 35.8036 17.7848 35.6048 18.0466 35.4038C18.2561 35.243 18.4285 35.0432 18.6381 34.8812C18.7277 34.812 18.8743 34.6361 19 34.6361" stroke="black" stroke-width="1" stroke-linecap="round"/>
</svg>
