<svg width="252" height="254" viewBox="0 0 252 254" fill="none" xmlns="http://www.w3.org/2000/svg">
<path d="M9.88137 28.649C18.6814 10.249 59.4355 0.648956 83.3814 0.648956C115.381 0.648956 122.436 6.61609 150.381 0.648956C175.541 -4.72331 213.881 24.6162 213.881 38.6489C213.881 58.104 205.936 86.2744 222.381 92.6489C242.936 100.616 246.381 125.482 251.381 140.649C258.881 213.649 179.881 241.649 155.381 249.149C130.881 256.649 97.1887 255.859 87.8813 241.649C75.4361 222.649 64.048 226.149 51.3814 222.649C-21.1186 204.649 1.82994 134.616 9.88137 123.149C20.4362 108.116 9.88137 96.1489 6.38137 84.6489C2.88137 73.1489 -1.11863 51.649 9.88137 28.649Z" fill="white"/>
<path d="M166.381 120.649C166.381 149.367 143.1 172.649 114.381 172.649C85.6619 172.649 62.3807 149.367 62.3807 120.649C62.3807 91.9299 85.6619 68.6487 114.381 68.6487C143.1 68.6487 166.381 91.9299 166.381 120.649Z" fill="#FFC211"/>
</svg>
