<svg width="1638" height="1028" fill="none" xmlns="http://www.w3.org/2000/svg">
<path d="M294.35 189.868C336.344 119.872 478.877 117.589 524.704 112.834C732.175 112.834 914.15 -26.4912 1076.13 8.69681C1238.1 43.8848 1148.12 90.0097 1380.09 189.868C1612.05 289.726 1739.04 583.118 1526.56 805.658C1314.09 1028.2 854.273 1055.3 370.84 1001.09C104.525 971.232 14.1996 786.678 4 621.045V1025H1635V3H4V555.658C10.5499 448.505 48.2575 360.944 86.8791 347.748C189.865 312.56 241.858 277.362 294.35 189.868Z" fill="#FFF1DD"/>
<path d="M4 621.045C14.1996 786.678 104.525 971.232 370.84 1001.09C854.273 1055.3 1314.09 1028.2 1526.56 805.658C1739.04 583.118 1612.05 289.726 1380.09 189.868C1148.12 90.0097 1238.1 43.8848 1076.13 8.69681C914.15 -26.4912 732.175 112.834 524.704 112.834C478.877 117.589 336.344 119.872 294.35 189.868C241.858 277.362 189.865 312.56 86.8791 347.748C48.2575 360.944 10.5499 448.505 4 555.658M4 621.045V1025H1635V3H4V555.658M4 621.045V555.658M4 621.045C2.62807 598.766 2.70583 576.829 4 555.658" stroke="white" stroke-width="0.5rem"/>
</svg>
