<svg width="50" height="60" viewBox="0 0 50 60" fill="none" xmlns="http://www.w3.org/2000/svg">
<path d="M50 15.1855C47.8142 15.1855 45.6565 15.0558 43.4696 15.0558C42.8583 15.0558 42.2559 15.1681 41.6439 15.1819C40.7725 15.2015 39.9034 15.2008 39.0318 15.2359C37.6492 15.2915 36.2659 15.4784 34.8994 15.7004C34.5058 15.7643 34.0946 15.8769 33.6952 15.8984C32.6598 15.9543 31.7051 16.0794 30.6758 15.9273C30.1856 15.8548 29.6935 15.9119 29.2012 15.83C28.7694 15.7582 28.3422 15.6512 27.9091 15.5888C26.9922 15.4565 26.0484 15.4275 25.1249 15.3763C23.8178 15.3039 22.521 15.1914 21.2102 15.1855C20.1898 15.1809 19.1692 15.1855 18.1487 15.1855C16.292 15.1855 14.4523 15.143 12.6014 15.0414C11.3076 14.9705 10.0413 14.9875 8.75692 15.1171C8.28187 15.165 7.81158 15.1855 7.33499 15.1855C5.56781 15.1855 3.80063 15.1855 2.03346 15.1855C1.68471 15.1855 1.34435 15.2503 0.987195 15.2503C0.738169 15.2503 0.443936 15.2077 0.200743 15.2647C-0.0373796 15.3205 -0.31679 15.3662 -0.557621 15.3799C-0.69692 15.3879 -0.851845 15.5096 -1 15.5096" stroke="black" stroke-width="0.4"/>
<path d="M-1 21.4674C0.413369 21.4674 1.8306 21.5049 3.24209 21.4112C4.23752 21.3451 5.20651 21.0406 6.20029 21.006C6.96961 20.9792 7.73291 21.0478 8.50072 21.0903C9.53149 21.1473 10.5628 21.1424 11.5944 21.1424C12.3454 21.1424 13.0829 21.2071 13.8297 21.3109C15.1411 21.4932 16.4504 21.8369 17.7728 21.9006C18.3656 21.9292 18.9643 21.9006 19.5579 21.9006C20.6457 21.9006 21.7373 21.8654 22.8239 21.9287C23.3746 21.9607 23.9195 22.0285 24.4719 21.9868C24.9019 21.9544 25.3353 21.9111 25.7645 21.8645C26.223 21.8147 26.6803 21.7331 27.1399 21.7C27.6621 21.6624 28.1812 21.6617 28.7034 21.6118C29.3722 21.5478 30.0431 21.4697 30.7136 21.4393C31.1874 21.4178 31.6612 21.3229 32.1347 21.3229C33.0157 21.3229 33.8955 21.2868 34.7763 21.2868C36.1016 21.2868 37.4187 21.2152 38.7423 21.1825C40.4961 21.1393 42.2511 21.2051 44.0027 21.2146C45.1 21.2206 46.1973 21.2507 47.2951 21.2507C47.5441 21.2507 47.7956 21.2372 48.0443 21.2507C48.3912 21.2696 48.7417 21.3199 49.0872 21.3611C49.3356 21.3906 49.768 21.5275 50 21.3951" stroke="black" stroke-width="0.4"/>
<path d="M-1 27.7608C0.257631 27.9218 1.5358 27.7419 2.7929 27.7011C5.26457 27.6208 7.74867 27.7362 10.2042 27.143C11.0494 26.9389 11.8793 26.9954 12.727 27.0567C13.1602 27.088 13.5961 27.0757 14.0285 27.1298C14.3747 27.173 14.7174 27.2779 15.0649 27.2825C15.5819 27.2894 16.083 27.319 16.5984 27.4021C17.5691 27.5587 18.5643 27.5815 19.5382 27.5815C20.1517 27.5815 20.7653 27.5721 21.3788 27.5848C22.0547 27.5988 22.7271 27.7303 23.4026 27.7542C24.8919 27.807 26.4021 27.8567 27.8899 27.7011C28.8435 27.6013 29.7945 27.5697 30.7494 27.5815C31.338 27.5888 31.9229 27.7213 32.5115 27.7476C33.051 27.7717 33.591 27.7608 34.1305 27.7608C35.8012 27.7608 37.4703 27.8699 39.1412 27.8804C40.9082 27.8915 42.6738 28 44.4415 28C44.998 28 45.5546 28 46.1111 28C46.639 28 47.1662 27.9402 47.6936 27.9402C48.4537 27.9402 49.2373 27.8853 50 27.7608" stroke="black" stroke-width="0.4"/>
<path d="M-1 34C0.373614 33.6543 1.78845 33.5419 3.17507 33.4272C5.78819 33.2109 8.40992 33.1413 11.0262 33.1176C15.092 33.0807 19.1557 33.0105 23.2217 33.0105C25.7847 33.0105 28.3477 33.0105 30.9107 33.0105C32.6602 33.0105 34.41 32.9444 36.156 33.1436C37.3635 33.2814 38.5737 33.4082 39.7845 33.4272C40.6309 33.4404 41.4887 33.4671 42.334 33.5545C42.6772 33.5899 43.0194 33.6355 43.3636 33.6355C43.7132 33.6355 44.0584 33.5517 44.4074 33.5371C45.3239 33.4988 46.2428 33.5313 47.1596 33.5313C47.3694 33.5313 47.5792 33.5313 47.789 33.5313C48.3065 33.5313 48.8529 33.5898 49.367 33.4734C49.586 33.4239 49.7816 33.3751 50 33.3751" stroke="black" stroke-width="0.4"/>
<path d="M-1 39.5735C3.75274 39.3375 8.50484 39.2145 13.2582 39.0393C15.3054 38.9638 17.3574 39.0204 19.4053 39.0204C21.1068 39.0204 22.8075 39.0147 24.5088 39.0629C25.7434 39.0979 26.979 39.1003 28.2133 39.1575C29.6234 39.2228 31.0301 39.3777 32.4404 39.4459C35.5954 39.5983 38.7534 39.6161 41.91 39.6161C42.1747 39.6161 42.4328 39.6745 42.6967 39.7012C43.2684 39.759 43.848 39.7666 44.4213 39.7839C44.752 39.7939 45.0491 39.8004 45.3752 39.8714C46.2129 40.0539 47.0943 40.0239 47.934 39.895C48.2241 39.8505 48.5191 39.7437 48.8121 39.7437C49.2146 39.7437 49.598 39.5735 50 39.5735" stroke="black" stroke-width="0.4"/>
<path d="M-0.5 45.6872C0.87686 45.7891 2.26237 45.7497 3.64236 45.7497C4.66587 45.7497 5.67803 45.6247 6.70139 45.6247C7.38264 45.6247 8.04469 45.7585 8.72222 45.8087C9.55852 45.8706 10.3846 45.7577 11.2118 45.6594C13.2919 45.4121 15.3852 45.3473 17.4722 45.4719C18.7581 45.5486 20.0495 45.4754 21.3368 45.5031C22.5505 45.5292 23.7453 45.6872 24.9618 45.6872C25.7587 45.6872 26.5451 45.7412 27.3403 45.7983C29.8382 45.9777 32.3705 46.0784 34.875 46.0205C35.6506 46.0025 36.4042 45.8747 37.1632 45.8087C38.7125 45.674 40.2394 45.7037 41.7986 45.6872C44.4031 45.6594 47.0152 45.6247 49.625 45.6247" stroke="black" stroke-width="0.4"/>
<path d="M-0.5 51.6871C1.75116 51.6871 4.00231 51.6871 6.25347 51.6871C9.45256 51.6871 12.6398 51.5372 15.8368 51.4093C17.0927 51.3591 18.3452 51.3256 19.5972 51.2149C19.7998 51.197 20.1755 51.2572 20.375 51.1732C20.5387 51.1043 20.7035 51.1209 20.8819 51.1385C21.4061 51.1903 21.925 51.1871 22.4514 51.1871C23.3553 51.1871 24.2593 51.1871 25.1632 51.1871C26.1083 51.1871 27.0348 51.3121 27.9792 51.3121C30.0116 51.3121 32.044 51.3121 34.0764 51.3121C36.1649 51.3121 38.2504 51.4371 40.3403 51.4371C40.9153 51.4371 41.505 51.5462 42.0764 51.6038C43.5304 51.7503 44.9566 51.8121 46.4167 51.8121C47.3475 51.8121 48.2698 51.6288 49.2049 51.8399C49.4183 51.8881 50.0299 51.9399 50.125 51.7496" stroke="black" stroke-width="0.4"/>
<path d="M-0.5625 58.1881C2.48677 57.8044 5.54237 57.4292 8.58333 57.0145C9.23204 56.9261 9.90514 56.9907 10.559 56.9069C11.7446 56.7549 12.8168 56.987 13.9931 57.0006C15.4129 57.0171 16.8336 57.0006 18.2535 57.0006C19.5454 57.0006 20.8287 57.1256 22.1215 57.1256C23.0113 57.1256 23.9822 57.0083 24.8681 57.1395C25.2013 57.1889 25.5252 57.1816 25.8611 57.1916C26.7057 57.2168 27.5443 57.3659 28.3889 57.4104C29.9794 57.4941 31.5792 57.4857 33.1701 57.5597C34.2738 57.611 35.4098 57.5799 36.5139 57.5597C38.0642 57.5312 39.5876 57.1881 41.1389 57.1881C43.1632 57.1881 45.1831 57.2511 47.2049 57.3097C48.1416 57.3368 49.062 57.4044 49.9896 57.4972C50.2303 57.5212 50.99 57.7706 51.0625 57.6256" stroke="black" stroke-width="0.4"/>
<path d="M0 3.56729C2.6274 3.56729 5.25379 3.5733 7.88084 3.54024C13.3852 3.47098 18.853 3.22809 24.3464 3.07748C28.2413 2.9707 32.0258 2.99783 35.734 2.34728C36.7679 2.16591 37.8009 1.89693 38.914 2.04078C40.015 2.18305 41.1616 2.37175 42.1946 2.60571C43.2959 2.85515 43.909 3.46507 45.1106 3.67547C45.5861 3.75872 46.1336 3.72956 46.6315 3.72956C47.1418 3.72956 47.6103 3.73041 48.1146 3.78364C48.7022 3.84567 49.5165 3.82663 50 4" stroke="black" stroke-width="0.4" stroke-linecap="round"/>
<path d="M0.0625 9.1243C3.95321 9.1243 7.83796 8.827 11.7083 8.4368C13.8762 8.21824 16.0521 8.3743 18.2257 8.3743C21.2675 8.3743 24.2889 8.48665 27.3264 8.6868C30.4162 8.89039 33.5107 8.98635 36.6007 9.18332C39.1358 9.34492 41.6713 9.29823 44.2049 9.4611C45.5939 9.5504 47.024 9.5618 48.4167 9.5618C49.0287 9.5618 49.6702 9.56756 50.25 9.3743" stroke="black" stroke-width="0.4"/>
</svg>
