<svg width="40" height="39" viewBox="0 0 40 39" fill="none" xmlns="http://www.w3.org/2000/svg">
<g clip-path="url(#clip0_116_135)">
<path fill-rule="evenodd" clip-rule="evenodd" d="M19.9404 0C8.91388 0 0 8.9375 0 19.9944C0 28.8328 5.71143 36.3143 13.6347 38.9622C14.6253 39.1613 14.9882 38.532 14.9882 38.0027C14.9882 37.5391 14.9555 35.9503 14.9555 34.2948C9.40857 35.4868 8.25347 31.9113 8.25347 31.9113C7.36204 29.5941 6.04122 28.9985 6.04122 28.9985C4.22571 27.7737 6.17347 27.7737 6.17347 27.7737C8.18735 27.9061 9.24408 29.8261 9.24408 29.8261C11.0265 32.8713 13.8988 32.0109 15.0543 31.4811C15.2192 30.1901 15.7478 29.2963 16.309 28.7999C11.8849 28.3363 7.2302 26.6151 7.2302 18.9349C7.2302 16.7501 8.02204 14.9626 9.27673 13.5724C9.07878 13.076 8.38531 11.0232 9.4751 8.27572C9.4751 8.27572 11.1588 7.74597 14.9551 10.3281C16.5804 9.89043 18.2566 9.66778 19.9404 9.66591C21.6241 9.66591 23.3404 9.89787 24.9253 10.3281C28.722 7.74597 30.4057 8.27572 30.4057 8.27572C31.4955 11.0232 30.8016 13.076 30.6037 13.5724C31.8914 14.9626 32.6506 16.7501 32.6506 18.9349C32.6506 26.6151 27.9959 28.303 23.5388 28.7999C24.2653 29.4287 24.8922 30.6203 24.8922 32.5073C24.8922 35.1886 24.8596 37.3405 24.8596 38.0023C24.8596 38.532 25.2229 39.1613 26.2131 38.9626C34.1363 36.3139 39.8478 28.8328 39.8478 19.9944C39.8804 8.9375 30.9339 0 19.9404 0Z" fill="white"/>
</g>
<defs>
<clipPath id="clip0_116_135">
<rect width="40" height="39" fill="white"/>
</clipPath>
</defs>
</svg>
