<svg width="40" height="40" viewBox="0 0 40 40" fill="none" xmlns="http://www.w3.org/2000/svg">
<path fill-rule="evenodd" clip-rule="evenodd" d="M5.2075 17.5H10.0725C10.295 13.635 11.03 10.075 12.165 7.205C10.3375 8.3248 8.77104 9.82298 7.57094 11.5988C6.37084 13.3745 5.56496 15.3867 5.2075 17.5ZM20 0C14.6957 0 9.60859 2.10714 5.85786 5.85786C2.10714 9.60859 0 14.6957 0 20C0 25.3043 2.10714 30.3914 5.85786 34.1421C9.60859 37.8929 14.6957 40 20 40C25.3043 40 30.3914 37.8929 34.1421 34.1421C37.8929 30.3914 40 25.3043 40 20C40 14.6957 37.8929 9.60859 34.1421 5.85786C30.3914 2.10714 25.3043 0 20 0ZM20 5C19.81 5 19.42 5.08 18.8375 5.655C18.2425 6.24 17.595 7.2125 16.995 8.61C16.0225 10.8775 15.3125 13.965 15.08 17.5H24.92C24.6875 13.965 23.9775 10.8775 23.005 8.61C22.405 7.21 21.755 6.24 21.1625 5.655C20.58 5.08 20.19 5 20 5ZM29.9275 17.5C29.705 13.635 28.97 10.075 27.835 7.205C29.6625 8.3248 31.229 9.82298 32.4291 11.5988C33.6292 13.3745 34.435 15.3867 34.7925 17.5H29.9275ZM24.92 22.5H15.08C15.3125 26.035 16.0225 29.1225 16.995 31.39C17.595 32.79 18.245 33.76 18.8375 34.345C19.42 34.92 19.81 35 20 35C20.19 35 20.58 34.92 21.1625 34.345C21.7575 33.76 22.4075 32.7875 23.005 31.39C23.9775 29.1225 24.6875 26.035 24.92 22.5ZM27.835 32.795C28.97 29.9275 29.705 26.365 29.9275 22.5H34.7925C34.435 24.6133 33.6292 26.6255 32.4291 28.4012C31.229 30.177 29.6625 31.6752 27.835 32.795ZM12.165 32.795C11.03 29.925 10.295 26.365 10.075 22.5H5.2075C5.56496 24.6133 6.37084 26.6255 7.57094 28.4012C8.77104 30.177 10.3375 31.6752 12.165 32.795Z" fill="white"/>
</svg>
