<svg viewBox="0 0 23 22" fill="none" xmlns="http://www.w3.org/2000/svg">
<path d="M21.6835 10.8359L12.0296 1.18906C11.9601 1.11941 11.8776 1.06416 11.7867 1.02646C11.6958 0.988758 11.5984 0.969353 11.5 0.969353C11.4016 0.969353 11.3041 0.988758 11.2132 1.02646C11.1223 1.06416 11.0398 1.11941 10.9703 1.18906L1.31636 10.8359C1.03511 11.1172 0.875732 11.4992 0.875732 11.8977C0.875732 12.725 1.54839 13.3977 2.37573 13.3977H3.39292V20.2812C3.39292 20.6961 3.72808 21.0312 4.14292 21.0312H9.99995V15.7812H12.625V21.0312H18.857C19.2718 21.0312 19.607 20.6961 19.607 20.2812V13.3977H20.6242C21.0226 13.3977 21.4046 13.2406 21.6859 12.957C22.2695 12.3711 22.2695 11.4219 21.6835 10.8359V10.8359Z" fill="white"/>
</svg>
