<svg viewBox="0 0 40 31" fill="none" xmlns="http://www.w3.org/2000/svg">
<path d="M0 3.875C0 2.84729 0.526784 1.86166 1.46447 1.13496C2.40215 0.408258 3.67392 0 5 0C6.32608 0 35 0 35 0C36.3261 0 37.5978 0.408258 38.5355 1.13496C39.4732 1.86166 40 2.84729 40 3.875V27.125C40 28.1527 39.4732 29.1383 38.5355 29.865C37.5978 30.5917 36.3261 31 35 31H5C3.67392 31 2.40215 30.5917 1.46447 29.865C0.526784 29.1383 0 28.1527 0 27.125V3.875ZM15.0403 23.25C15.0403 23.4367 15.1098 23.6195 15.2407 23.7763C15.3715 23.9331 15.5581 24.0573 15.7778 24.1338C15.9976 24.2104 16.2412 24.2361 16.4794 24.2079C16.7176 24.1796 16.9402 24.0986 17.1203 23.9746L28.3703 16.2246C28.5025 16.1337 28.6083 16.0222 28.6808 15.8972C28.7532 15.7723 28.7907 15.6369 28.7907 15.5C28.7907 15.3631 28.7532 15.2277 28.6808 15.1028C28.6083 14.9778 28.5025 14.8663 28.3703 14.7754L17.1203 7.02537C16.9402 6.90138 16.7176 6.82039 16.4794 6.79214C16.2412 6.76389 15.9976 6.7896 15.7778 6.86616C15.5581 6.94272 15.3715 7.06688 15.2407 7.22368C15.1098 7.38049 15.0403 7.56326 15.0403 7.75V23.25Z" fill="white"/>
</svg>
