<svg viewBox="0 0 118 22" fill="white" xmlns="http://www.w3.org/2000/svg">
<path d="M36.0161 20.906C36.3629 21.2153 36.7673 21.4531 37.2061 21.606C37.7003 21.7796 38.2212 21.8649 38.7451 21.858C39.2682 21.8648 39.7885 21.7795 40.2821 21.606C40.7212 21.4538 41.1256 21.2159 41.4721 20.906C41.8035 20.6038 42.0669 20.2347 42.2451 19.823C42.4302 19.3888 42.5235 18.921 42.5191 18.449C42.5191 18.4044 42.5173 18.3621 42.5155 18.3204C42.5138 18.2799 42.5121 18.2399 42.5121 18.199V6.83604L53.5181 5.38904V12.354C53.3533 12.2698 53.1833 12.1963 53.0091 12.134C52.0099 11.8086 50.9332 11.8086 49.9341 12.134C49.4949 12.2813 49.09 12.516 48.7441 12.824C48.4143 13.1205 48.1512 13.4834 47.9721 13.889C47.7873 14.3209 47.694 14.7863 47.6981 15.256C47.6936 15.7297 47.7869 16.1991 47.9721 16.635C48.1513 17.0451 48.4159 17.4122 48.7481 17.712C49.0943 18.0221 49.4988 18.26 49.9381 18.412C50.9353 18.7492 52.0158 18.7492 53.0131 18.412C53.452 18.2595 53.8564 18.0216 54.2031 17.712C54.5341 17.4128 54.7965 17.0453 54.9721 16.635C55.159 16.1997 55.2524 15.7298 55.2461 15.256V0.389038L41.5391 2.10704L40.7811 2.20004V15.541C40.6202 15.4563 40.453 15.3841 40.2811 15.325C39.7862 15.1573 39.2665 15.0745 38.7441 15.08C38.2212 15.0744 37.7012 15.1572 37.2061 15.325C36.7675 15.4737 36.363 15.7083 36.0161 16.015C35.6864 16.3109 35.4242 16.6741 35.2471 17.08C35.0653 17.5144 34.9717 17.9806 34.9717 18.4515C34.9717 18.9224 35.0653 19.3886 35.2471 19.823C35.423 20.2348 35.6853 20.6041 36.0161 20.906Z" fill="white"/>
<path d="M79.7073 14.3076C79.1409 14.0537 78.581 13.7705 78.0276 13.458L76.3772 15.9678C76.9566 16.2998 77.5849 16.6058 78.262 16.8857C78.9456 17.1592 79.6617 17.3968 80.4104 17.5986C81.1656 17.7939 81.9534 17.9437 82.7737 18.0479C83.594 18.1585 84.4338 18.2139 85.2932 18.2139C86.5953 18.2139 87.7769 18.0934 88.8381 17.8525C89.8993 17.6051 90.8043 17.2471 91.553 16.7783C92.3082 16.3031 92.8876 15.7236 93.2913 15.04C93.7014 14.3499 93.9065 13.5654 93.9065 12.6865C93.9065 12.029 93.786 11.4365 93.5452 10.9092C93.3043 10.3753 92.9495 9.92285 92.4807 9.55176C92.012 9.17415 91.4293 8.88444 90.7327 8.68262C90.0426 8.48079 89.2483 8.37988 88.3499 8.37988C87.8746 8.37988 87.3831 8.40592 86.8752 8.45801C86.3739 8.50358 85.8792 8.55566 85.3909 8.61426C84.9091 8.67285 84.4469 8.72819 84.0042 8.78027C83.5679 8.82585 83.1806 8.84863 82.842 8.84863C82.0022 8.84863 81.3772 8.7054 80.967 8.41895C80.5569 8.12598 80.3518 7.75163 80.3518 7.2959C80.3518 7.06152 80.4137 6.82715 80.5374 6.59277C80.6676 6.35189 80.8954 6.13704 81.2209 5.94824C81.5465 5.75293 81.9827 5.59342 82.5295 5.46973C83.0829 5.34603 83.786 5.28418 84.6389 5.28418C85.2379 5.28418 85.8238 5.31999 86.3967 5.3916C86.9762 5.45671 87.536 5.54785 88.0764 5.66504C88.6168 5.78223 89.1344 5.9222 89.6292 6.08496C90.1239 6.24121 90.5862 6.41374 91.0159 6.60254L92.3733 4.10254C91.8525 3.86816 91.2893 3.65658 90.6838 3.46777C90.0784 3.27246 89.4469 3.10645 88.7893 2.96973C88.1383 2.83301 87.4677 2.72884 86.7776 2.65723C86.0875 2.5791 85.4006 2.54004 84.717 2.54004C83.773 2.54004 82.9299 2.6084 82.1877 2.74512C81.4521 2.87533 80.801 3.05762 80.2346 3.29199C79.6747 3.52637 79.1962 3.80631 78.7991 4.13184C78.4019 4.45085 78.0764 4.79915 77.8225 5.17676C77.5751 5.54785 77.3928 5.93848 77.2756 6.34863C77.165 6.75879 77.1096 7.1722 77.1096 7.58887C77.1096 8.29199 77.2528 8.90723 77.5393 9.43457C77.8258 9.96191 78.2099 10.4014 78.6917 10.7529C79.1799 11.1045 79.7366 11.3682 80.3616 11.5439C80.9931 11.7197 81.6506 11.8076 82.3342 11.8076C82.7444 11.8076 83.1806 11.7816 83.6428 11.7295C84.1116 11.6709 84.5836 11.609 85.0588 11.5439C85.5406 11.4788 86.0159 11.4202 86.4846 11.3682C86.9534 11.3096 87.3993 11.2803 87.8225 11.2803C88.786 11.2803 89.4989 11.443 89.9612 11.7686C90.4234 12.0876 90.6545 12.5238 90.6545 13.0771C90.6545 13.4222 90.5601 13.7412 90.3713 14.0342C90.189 14.3271 89.8928 14.5811 89.4827 14.7959C89.079 15.0042 88.5549 15.1702 87.9104 15.2939C87.2659 15.4111 86.4846 15.4697 85.5667 15.4697C84.8049 15.4697 84.0855 15.4242 83.4084 15.333C82.7379 15.2419 82.0966 15.1117 81.4846 14.9424C80.8726 14.7666 80.2802 14.555 79.7073 14.3076Z" fill="white"/>
<path d="M103.682 7.2373C103.272 8.1748 103.067 9.18717 103.067 10.2744C103.067 11.3877 103.265 12.4294 103.662 13.3994C104.066 14.363 104.665 15.2028 105.459 15.9189C106.253 16.6286 107.243 17.1885 108.428 17.5986C109.613 18.0023 110.99 18.2041 112.559 18.2041C113.789 18.2041 114.951 18.0544 116.045 17.7549C117.139 17.4489 118.102 17.029 118.936 16.4951L117.51 14.1514C117.178 14.3402 116.82 14.516 116.436 14.6787C116.052 14.835 115.651 14.9717 115.235 15.0889C114.824 15.1995 114.398 15.2874 113.955 15.3525C113.513 15.4176 113.067 15.4502 112.617 15.4502C111.628 15.4502 110.739 15.3232 109.951 15.0693C109.17 14.8089 108.506 14.4508 107.959 13.9951C107.419 13.5329 107.005 12.986 106.719 12.3545C106.433 11.723 106.289 11.0296 106.289 10.2744C106.289 9.54525 106.426 8.87793 106.699 8.27246C106.979 7.66048 107.383 7.13639 107.91 6.7002C108.444 6.25749 109.099 5.91569 109.873 5.6748C110.648 5.42741 111.53 5.30371 112.52 5.30371C112.93 5.30371 113.343 5.32975 113.76 5.38184C114.183 5.43392 114.59 5.50879 114.981 5.60645C115.378 5.69759 115.749 5.81152 116.094 5.94824C116.446 6.08496 116.755 6.24121 117.022 6.41699L118.448 4.07324C117.556 3.55892 116.589 3.17806 115.547 2.93066C114.512 2.67676 113.373 2.5498 112.129 2.5498C110.71 2.5498 109.437 2.74837 108.311 3.14551C107.191 3.54264 106.24 4.08952 105.459 4.78613C104.684 5.47624 104.092 6.29329 103.682 7.2373Z" fill="white"/>
<path fill-rule="evenodd" clip-rule="evenodd" d="M18.9539 10.3622C18.9539 9.20984 19.1654 8.15515 19.5886 7.19812C20.0118 6.24109 20.6042 5.42078 21.366 4.73718C22.1342 4.04708 23.0522 3.51322 24.1199 3.13562C25.1941 2.75802 26.3822 2.56921 27.6843 2.56921C28.9799 2.56921 30.1648 2.75802 31.239 3.13562C32.3132 3.51322 33.2312 4.04708 33.9929 4.73718C34.7612 5.42078 35.3569 6.24109 35.78 7.19812C36.2032 8.15515 36.4148 9.20984 36.4148 10.3622C36.4148 11.521 36.2032 12.5855 35.78 13.5555C35.3569 14.5191 34.7612 15.3492 33.9929 16.0458C33.2312 16.7424 32.3132 17.286 31.239 17.6766C30.1648 18.0608 28.9799 18.2528 27.6843 18.2528C26.3822 18.2528 25.1941 18.0608 24.1199 17.6766C23.0522 17.286 22.1342 16.7424 21.366 16.0458C20.6042 15.3492 20.0118 14.5191 19.5886 13.5555C19.1654 12.5855 18.9539 11.521 18.9539 10.3622ZM22.0496 10.3622C22.0496 11.1499 22.1895 11.8596 22.4695 12.4911C22.7559 13.1226 23.1498 13.663 23.6511 14.1122C24.1589 14.5549 24.7546 14.8967 25.4382 15.1376C26.1283 15.3785 26.877 15.4989 27.6843 15.4989C28.4916 15.4989 29.2371 15.3785 29.9207 15.1376C30.6108 14.8967 31.2065 14.5549 31.7078 14.1122C32.2091 13.663 32.6029 13.1226 32.8894 12.4911C33.1759 11.8596 33.3191 11.1499 33.3191 10.3622C33.3191 9.57442 33.1759 8.86804 32.8894 8.24304C32.6029 7.61804 32.2091 7.0907 31.7078 6.66101C31.2065 6.22481 30.6108 5.89278 29.9207 5.66492C29.2371 5.43705 28.4916 5.32312 27.6843 5.32312C26.877 5.32312 26.1283 5.43705 25.4382 5.66492C24.7546 5.89278 24.1589 6.22481 23.6511 6.66101C23.1498 7.0907 22.7559 7.61804 22.4695 8.24304C22.1895 8.86804 22.0496 9.57442 22.0496 10.3622Z" fill="white"/>
<path d="M0.565186 10.3134C0.565186 9.22612 0.770264 8.21375 1.18042 7.27625C1.59058 6.33223 2.18302 5.51518 2.95776 4.82507C3.73901 4.12846 4.68953 3.58158 5.80933 3.18445C6.93563 2.78731 8.20842 2.58875 9.62769 2.58875C10.8712 2.58875 12.0105 2.7157 13.0457 2.9696C14.0873 3.217 15.0541 3.59786 15.946 4.11218L14.5203 6.45593C14.2533 6.28015 13.9441 6.1239 13.5925 5.98718C13.2475 5.85046 12.8764 5.73653 12.4792 5.64539C12.0886 5.54773 11.6817 5.47286 11.2585 5.42078C10.8419 5.36869 10.4285 5.34265 10.0183 5.34265C9.02873 5.34265 8.14657 5.46635 7.37183 5.71375C6.59709 5.95463 5.94279 6.29643 5.40894 6.73914C4.88159 7.17533 4.47795 7.69942 4.198 8.3114C3.92456 8.91687 3.78784 9.58419 3.78784 10.3134C3.78784 11.0686 3.93107 11.7619 4.21753 12.3934C4.50399 13.0249 4.9174 13.5718 5.45776 14.0341C6.00464 14.4898 6.6687 14.8479 7.44995 15.1083C8.23771 15.3622 9.12638 15.4891 10.116 15.4891C10.5652 15.4891 11.0111 15.4566 11.4539 15.3915C11.8966 15.3264 12.323 15.2385 12.7332 15.1278C13.1498 15.0106 13.5502 14.8739 13.9343 14.7177C14.3184 14.5549 14.6765 14.3791 15.0085 14.1903L16.4343 16.5341C15.601 17.0679 14.6375 17.4878 13.5437 17.7938C12.45 18.0933 11.2878 18.243 10.0574 18.243C8.48836 18.243 7.11141 18.0412 5.92651 17.6376C4.74162 17.2274 3.75203 16.6675 2.95776 15.9579C2.16349 15.2417 1.56453 14.4019 1.16089 13.4384C0.763753 12.4683 0.565186 11.4266 0.565186 10.3134Z" fill="white"/>
<path d="M96.9241 2.73535H100.039V17.999H96.9241V2.73535Z" fill="white"/>
<path d="M58.4377 2.73535H61.5334V11.1436C61.5334 11.8337 61.6278 12.4489 61.8167 12.9893C62.0055 13.5231 62.2854 13.9756 62.6565 14.3467C63.0341 14.7178 63.4996 15.001 64.053 15.1963C64.6064 15.3851 65.2509 15.4795 65.9866 15.4795C66.7157 15.4795 67.357 15.3851 67.9104 15.1963C68.4703 15.001 68.9358 14.7178 69.3069 14.3467C69.6845 13.9756 69.9677 13.5231 70.1565 12.9893C70.3453 12.4489 70.4397 11.8337 70.4397 11.1436V2.73535H73.5354V11.5146C73.5354 12.5173 73.3661 13.4287 73.0276 14.249C72.689 15.0693 72.1975 15.7725 71.553 16.3584C70.9084 16.9443 70.1174 17.3968 69.1799 17.7158C68.2489 18.0348 67.1845 18.1943 65.9866 18.1943C64.7887 18.1943 63.7209 18.0348 62.7834 17.7158C61.8525 17.3968 61.0647 16.9443 60.4202 16.3584C59.7756 15.7725 59.2841 15.0693 58.9456 14.249C58.607 13.4287 58.4377 12.5173 58.4377 11.5146V2.73535Z" fill="white"/>
</svg>
