<svg viewBox="0 0 311 92" fill="none" xmlns="http://www.w3.org/2000/svg">
<path d="M10 4.0001H5.17157L8.58579 7.41432L84.5858 83.4143L88 86.8285V82.0001V6.0001V4.0001H86H10ZM136 4H131.172L134.586 7.41421L210.586 83.4142L214 86.8284V82V6V4H212H136ZM183 88.5H187.828L184.414 85.0858L108.414 9.0858L105 5.67158V10.5L105 86.5V88.5H107L183 88.5ZM268.5 88.5C290.591 88.5 308.5 70.5914 308.5 48.5C308.5 26.4086 290.591 8.50001 268.5 8.50001C246.409 8.50001 228.5 26.4086 228.5 48.5C228.5 70.5914 246.409 88.5 268.5 88.5Z" fill="#FBDF3B" stroke="black" stroke-width="4"/>
</svg>
