<svg viewBox="0 0 177 145" fill="none" xmlns="http://www.w3.org/2000/svg">
<g clip-path="url(#clip0_610_365)">
<path d="M88.5 144.035C137.377 144.035 177 111.792 177 72.0175C177 32.2433 137.377 0 88.5 0C39.6228 0 0 32.2433 0 72.0175C0 111.792 39.6228 144.035 88.5 144.035Z" fill="#D54644"/>
<path d="M83.326 8.60863C82.8302 9.21799 85.4468 11.4762 85.7814 15.5625C85.9487 17.5936 85.4887 19.3261 85.0287 20.5508C82.173 19.4874 78.1764 18.3524 73.3015 18.0178C69.6215 17.7609 65.0693 16.596 62.5422 16.9903C62.8051 18.0835 63.4085 19.9474 64.8721 21.8173C66.0669 23.3527 67.3812 24.3025 68.2773 24.8462C65.6189 25.6646 61.7059 27.2059 57.6375 30.199C53.8499 32.9948 51.3229 36.0177 49.7637 38.2102C53.4079 36.5972 58.205 34.8767 63.9939 33.7894C68.9584 32.8574 73.3852 32.6244 76.9756 32.6842C76.42 34.3629 75.8405 36.7286 75.733 39.5902C75.6075 42.8998 76.1691 45.624 76.7008 47.464C77.7821 44.8534 79.652 40.9403 82.7764 36.6928C85.7754 32.6125 87.3167 30.5156 89.4077 30.4797C94.635 30.3841 97.7176 43.2583 100.042 42.7744C101.23 42.5235 101.953 38.8434 101.284 27.5823C104.098 26.8774 107.784 26.4831 111.506 27.8571C115.777 29.4402 117.868 32.5288 118.824 31.8657C119.792 31.1907 119.111 27.0267 116.476 24.5475C112.115 20.4433 104.158 22.8867 103.943 21.6202C103.793 20.748 107.491 19.3739 108.214 19.1051C111.452 17.8983 113.71 17.8924 113.716 17.6474C113.716 17.3487 110.436 16.9126 97.4189 16.2674C86.8866 9.25981 83.804 8.0411 83.326 8.62656V8.60863Z" fill="#1A8B3B"/>
<path d="M85.9973 64.6874C85.8838 73.7978 87.1383 82.9143 89.7012 91.6544C89.9402 92.4728 90.7347 92.8551 91.5412 92.6998C101.201 90.818 110.951 89.4619 120.76 88.6374C121.567 88.5717 122.254 87.9982 122.254 87.1439C122.254 86.3852 121.567 85.5847 120.76 85.6504C110.688 86.4928 100.664 87.8847 90.7467 89.8143L92.5867 90.8598C90.0895 82.3587 88.8768 73.5469 88.9843 64.6874C89.0082 62.7637 86.0212 62.7637 85.9973 64.6874Z" fill="#231815"/>
<path d="M56.2217 66.1331V72.3879C56.2217 73.1705 56.9087 73.9173 57.7152 73.8814C58.5217 73.8456 59.2087 73.2243 59.2087 72.3879V66.1331C59.2087 65.3505 58.5217 64.6037 57.7152 64.6395C56.9087 64.6754 56.2217 65.2967 56.2217 66.1331Z" fill="#231815"/>
<path d="M122.647 55.0631C122.647 56.3475 122.647 57.632 122.647 58.9164C122.647 59.699 123.334 60.4458 124.141 60.4099C124.947 60.3741 125.635 59.7528 125.635 58.9164C125.635 57.632 125.635 56.3475 125.635 55.0631C125.635 54.2805 124.947 53.5338 124.141 53.5696C123.334 53.6054 122.647 54.2267 122.647 55.0631Z" fill="#231815"/>
<path d="M80.8236 120.091H95.7469C97.6705 120.091 97.6705 117.104 95.7469 117.104H80.8236C78.8999 117.104 78.8999 120.091 80.8236 120.091Z" fill="#231815"/>
<path d="M88.3449 88.9481C88.1119 90.4296 88.5241 92.0725 89.6532 93.0582C90.7823 94.044 92.6642 94.1754 93.7574 93.1478C94.7252 92.2278 94.8148 90.5372 93.9426 89.5276C93.0704 88.5179 91.3857 88.3507 90.3343 89.1691" fill="#231815"/>
<path d="M86.9048 88.5538C86.6658 90.1429 86.845 91.8634 87.8068 93.2076C88.7687 94.5518 90.2622 95.418 91.9469 95.3583C92.7594 95.3284 93.6017 95.1133 94.2708 94.6354C95.0176 94.1037 95.5313 93.4107 95.83 92.5445C96.3319 91.0749 95.9197 89.2348 94.7308 88.2073C93.3448 87.0125 91.0926 86.7377 89.5752 87.8787C89.2526 88.1237 89.0017 88.3626 88.8882 88.7689C88.7926 89.1273 88.8344 89.6052 89.0375 89.9219C89.4318 90.5372 90.4116 90.9614 91.0806 90.4595C91.1822 90.3819 91.2838 90.3162 91.3913 90.2504C91.4271 90.2325 91.4869 90.2086 91.5227 90.1847C91.2838 90.364 91.2479 90.2923 91.4092 90.2385C91.5167 90.2026 91.6243 90.1728 91.7318 90.1489C91.7796 90.1369 91.8334 90.1369 91.8812 90.119C91.451 90.2385 91.6661 90.1489 91.8214 90.1429C91.9349 90.1429 92.0484 90.1429 92.162 90.1489C92.4069 90.1608 91.9827 90.125 91.9887 90.125C92.0425 90.113 92.162 90.1608 92.2097 90.1728C92.3053 90.1967 92.4009 90.2325 92.4965 90.2624C92.7594 90.346 92.2157 90.125 92.383 90.2146C92.4487 90.2504 92.5144 90.2803 92.5801 90.3221C92.6339 90.352 92.6817 90.3878 92.7355 90.4237C92.9386 90.5491 92.61 90.3281 92.61 90.3281C92.6936 90.352 92.8191 90.5312 92.8788 90.591C92.9744 90.6925 92.8848 90.7164 92.7833 90.4655C92.8072 90.5193 92.8549 90.573 92.8848 90.6208C92.9147 90.6746 92.9446 90.7284 92.9744 90.7821C93.0999 91.0092 92.8609 90.4356 92.9386 90.6985C92.9685 90.7941 92.9983 90.8897 93.0222 90.9853C93.0521 91.1227 93.0342 91.3258 93.0222 90.8837C93.0222 90.9315 93.0342 90.9853 93.0342 91.033C93.0401 91.1466 93.0401 91.2601 93.0342 91.3736C93.0342 91.4333 93.0222 91.499 93.0162 91.5588C93.0222 91.1406 93.0521 91.3138 93.0162 91.4572C92.9923 91.5647 92.9565 91.6723 92.9207 91.7798C92.8669 91.965 93.0999 91.4214 92.9684 91.6663C92.9446 91.7081 92.9266 91.7559 92.9027 91.7977C92.8729 91.8515 92.843 91.9053 92.8072 91.959C92.7235 92.0845 92.6339 92.0905 92.8848 91.8694C92.7952 91.9531 92.7116 92.0546 92.622 92.1442C92.4188 92.3354 92.8729 91.977 92.7116 92.0785C92.6578 92.1144 92.604 92.1502 92.5503 92.1801C92.4666 92.2338 92.3651 92.2637 92.2814 92.3234C92.5742 92.1323 92.5323 92.2219 92.389 92.2697C92.3292 92.2876 92.2695 92.3115 92.2097 92.3234C92.162 92.3354 92.1082 92.3473 92.0604 92.3593C92.0126 92.3712 91.9588 92.3772 91.911 92.3892L92.156 92.3533C92.0664 92.3951 91.8692 92.3712 91.7736 92.3712C91.696 92.3712 91.2957 92.3294 91.5825 92.3712C91.8692 92.4131 91.469 92.3473 91.3973 92.3294C91.2599 92.2936 91.1225 92.2458 90.9851 92.198C90.7999 92.1323 91.3435 92.3772 91.0926 92.2398C91.0448 92.2159 90.997 92.192 90.9552 92.1681C90.8536 92.1144 90.7521 92.0486 90.6565 91.9829C90.549 91.9053 90.4832 91.7858 90.7401 92.0546C90.7043 92.0188 90.6565 91.9829 90.6206 91.9471C90.5071 91.8455 90.4115 91.732 90.304 91.6185C90.1666 91.4751 90.5251 91.9351 90.3578 91.6962C90.31 91.6305 90.2622 91.5588 90.2204 91.493C90.1487 91.3795 90.083 91.2541 90.0173 91.1346C89.9993 91.0928 89.8858 90.8359 89.9874 91.0868C90.0889 91.3377 89.9635 91.0032 89.9456 90.9554C89.9037 90.824 89.8619 90.6925 89.8321 90.5551C89.8201 90.5014 89.8082 90.4476 89.7962 90.3938C89.7843 90.34 89.7305 89.9697 89.7663 90.2624C89.8022 90.5551 89.7663 90.2624 89.7663 90.2086C89.7604 90.125 89.7544 90.0413 89.7484 89.9577C89.7484 89.8203 89.7484 89.6769 89.7484 89.5395C89.7484 89.4141 89.8321 88.8226 89.7484 89.3543C89.8082 88.9421 89.8201 88.5777 89.5991 88.2013C89.4198 87.8907 89.0614 87.598 88.7089 87.5143C87.998 87.353 86.9944 87.7294 86.8689 88.5598L86.9048 88.5538Z" fill="#231815"/>
</g>
<defs>
<clipPath id="clip0_610_365">
<rect width="177" height="144.035" fill="white"/>
</clipPath>
</defs>
</svg>
